<mxfile host="app.diagrams.net" modified="2023-08-06T01:06:50.243Z" agent="Mozilla/5.0 (Windows NT 10.0; Win64; x64) AppleWebKit/537.36 (KHTML, like Gecko) Chrome/115.0.0.0 Safari/537.36 Edg/115.0.1901.188" version="21.6.6" etag="GbdhQ5mKYiMwTfimgwf6" type="github">
  <diagram name="第 1 页" id="MzaPEk_2c3inPzBTFlYv">
    <mxGraphModel>
      <root>
        <mxCell id="0" />
        <mxCell id="1" parent="0" />
      </root>
    </mxGraphModel>
  </diagram>
</mxfile>
